<svg xmlns="http://www.w3.org/2000/svg" viewBox="0 0 256 256" role="img" aria-label="王都卫兵">
  <defs>
    <linearGradient id="bg" x1="0" y1="0" x2="1" y2="1">
      <stop offset="0" stop-color="#1e293b"/>
      <stop offset=".55" stop-color="#334155"/>
      <stop offset="1" stop-color="#0f172a"/>
    </linearGradient>
    <radialGradient id="light" cx=".36" cy=".18" r=".75">
      <stop offset="0" stop-color="#f8fafc" stop-opacity=".36"/>
      <stop offset=".45" stop-color="#94a3b8" stop-opacity=".18"/>
      <stop offset="1" stop-color="#020617" stop-opacity="0"/>
    </radialGradient>
  </defs>
  <rect width="256" height="256" rx="36" fill="url(#bg)"/>
  <rect width="256" height="256" rx="36" fill="url(#light)"/>
  <path d="M63 82c19-31 107-31 130 0-15 16-36 24-65 24s-51-8-65-24Z" fill="#cbd5e1"/>
  <path d="M76 90c16-18 88-18 104 0-12 13-29 19-52 19S88 103 76 90Z" fill="#475569"/>
  <path d="M83 117c5-31 85-31 90 0 7 42-10 75-45 75s-52-33-45-75Z" fill="#d8b28c"/>
  <path d="M82 124c15 8 77 8 92 0-2-18-16-32-46-32s-44 14-46 32Z" fill="#1f2937"/>
  <path d="M57 222c10-35 32-54 71-54s61 19 71 54H57Z" fill="#1f2937"/>
  <path d="M79 222c7-23 23-35 49-35s42 12 49 35H79Z" fill="#64748b"/>
  <path d="M98 137c7-5 16-5 24 0M134 137c8-5 17-5 24 0" stroke="#111827" stroke-width="5" stroke-linecap="round"/>
  <path d="M111 158c11 7 25 7 36 0" stroke="#7c2d12" stroke-width="4" stroke-linecap="round"/>
  <path d="M128 55v43" stroke="#facc15" stroke-width="7" stroke-linecap="round"/>
  <path d="M53 78c31 18 119 18 150 0" fill="none" stroke="#facc15" stroke-width="6" stroke-linecap="round"/>
</svg>
