<?xml version="1.0" encoding="UTF-8"?>
<svg xmlns="http://www.w3.org/2000/svg" width="1920" height="1080" viewBox="0 0 1920 1080" role="img" aria-label="贫民区雨夜主场景">
    <title>贫民区雨夜主场景</title>
    <defs>
        <radialGradient id="sceneGlow" cx="28%" cy="18%" r="78%">
            <stop offset="0%" stop-color="#94a3b8" stop-opacity="0.72"/>
            <stop offset="42%" stop-color="#23121c" stop-opacity="0.76"/>
            <stop offset="100%" stop-color="#080b12" stop-opacity="1"/>
        </radialGradient>
        <linearGradient id="sceneDepth" x1="0%" y1="0%" x2="100%" y2="100%">
            <stop offset="0%" stop-color="#080b12"/>
            <stop offset="55%" stop-color="#23121c"/>
            <stop offset="100%" stop-color="#581c87"/>
        </linearGradient>
        <filter id="softBlur"><feGaussianBlur stdDeviation="18"/></filter>
    </defs>
    <rect width="1920" height="1080" fill="url(#sceneDepth)"/>
    <rect width="1920" height="1080" fill="url(#sceneGlow)" opacity="0.88"/>
    <g opacity="0.9">
        
        <path d="M0 770 L1920 610 L1920 1080 L0 1080 Z" fill="#020617" opacity="0.55"/>
        <rect x="-40" y="360" width="245" height="545" fill="#030712" opacity="0.42"/>
        <rect x="200" y="315" width="245" height="545" fill="#030712" opacity="0.48"/>
        <rect x="440" y="270" width="245" height="545" fill="#030712" opacity="0.54"/>
        <rect x="680" y="360" width="245" height="545" fill="#030712" opacity="0.42"/>
        <rect x="920" y="315" width="245" height="545" fill="#030712" opacity="0.48"/>
        <rect x="1160" y="270" width="245" height="545" fill="#030712" opacity="0.54"/>
        <rect x="1400" y="360" width="245" height="545" fill="#030712" opacity="0.42"/>
        <rect x="1640" y="315" width="245" height="545" fill="#030712" opacity="0.48"/>
        <rect x="1880" y="270" width="245" height="545" fill="#030712" opacity="0.54"/>
        <line x1="0" y1="0" x2="-120" y2="1080" stroke="#dbeafe" stroke-width="2" opacity="0.16"/>
        <line x1="55" y1="0" x2="-65" y2="1080" stroke="#dbeafe" stroke-width="2" opacity="0.16"/>
        <line x1="110" y1="0" x2="-10" y2="1080" stroke="#dbeafe" stroke-width="2" opacity="0.16"/>
        <line x1="165" y1="0" x2="45" y2="1080" stroke="#dbeafe" stroke-width="2" opacity="0.16"/>
        <line x1="220" y1="0" x2="100" y2="1080" stroke="#dbeafe" stroke-width="2" opacity="0.16"/>
        <line x1="275" y1="0" x2="155" y2="1080" stroke="#dbeafe" stroke-width="2" opacity="0.16"/>
        <line x1="330" y1="0" x2="210" y2="1080" stroke="#dbeafe" stroke-width="2" opacity="0.16"/>
        <line x1="385" y1="0" x2="265" y2="1080" stroke="#dbeafe" stroke-width="2" opacity="0.16"/>
        <line x1="440" y1="0" x2="320" y2="1080" stroke="#dbeafe" stroke-width="2" opacity="0.16"/>
        <line x1="495" y1="0" x2="375" y2="1080" stroke="#dbeafe" stroke-width="2" opacity="0.16"/>
        <line x1="550" y1="0" x2="430" y2="1080" stroke="#dbeafe" stroke-width="2" opacity="0.16"/>
        <line x1="605" y1="0" x2="485" y2="1080" stroke="#dbeafe" stroke-width="2" opacity="0.16"/>
        <line x1="660" y1="0" x2="540" y2="1080" stroke="#dbeafe" stroke-width="2" opacity="0.16"/>
        <line x1="715" y1="0" x2="595" y2="1080" stroke="#dbeafe" stroke-width="2" opacity="0.16"/>
        <line x1="770" y1="0" x2="650" y2="1080" stroke="#dbeafe" stroke-width="2" opacity="0.16"/>
        <line x1="825" y1="0" x2="705" y2="1080" stroke="#dbeafe" stroke-width="2" opacity="0.16"/>
        <line x1="880" y1="0" x2="760" y2="1080" stroke="#dbeafe" stroke-width="2" opacity="0.16"/>
        <line x1="935" y1="0" x2="815" y2="1080" stroke="#dbeafe" stroke-width="2" opacity="0.16"/>
        <line x1="990" y1="0" x2="870" y2="1080" stroke="#dbeafe" stroke-width="2" opacity="0.16"/>
        <line x1="1045" y1="0" x2="925" y2="1080" stroke="#dbeafe" stroke-width="2" opacity="0.16"/>
        <line x1="1100" y1="0" x2="980" y2="1080" stroke="#dbeafe" stroke-width="2" opacity="0.16"/>
        <line x1="1155" y1="0" x2="1035" y2="1080" stroke="#dbeafe" stroke-width="2" opacity="0.16"/>
        <line x1="1210" y1="0" x2="1090" y2="1080" stroke="#dbeafe" stroke-width="2" opacity="0.16"/>
        <line x1="1265" y1="0" x2="1145" y2="1080" stroke="#dbeafe" stroke-width="2" opacity="0.16"/>
        <line x1="1320" y1="0" x2="1200" y2="1080" stroke="#dbeafe" stroke-width="2" opacity="0.16"/>
        <line x1="1375" y1="0" x2="1255" y2="1080" stroke="#dbeafe" stroke-width="2" opacity="0.16"/>
        <line x1="1430" y1="0" x2="1310" y2="1080" stroke="#dbeafe" stroke-width="2" opacity="0.16"/>
        <line x1="1485" y1="0" x2="1365" y2="1080" stroke="#dbeafe" stroke-width="2" opacity="0.16"/>
        <line x1="1540" y1="0" x2="1420" y2="1080" stroke="#dbeafe" stroke-width="2" opacity="0.16"/>
        <line x1="1595" y1="0" x2="1475" y2="1080" stroke="#dbeafe" stroke-width="2" opacity="0.16"/>
        <line x1="1650" y1="0" x2="1530" y2="1080" stroke="#dbeafe" stroke-width="2" opacity="0.16"/>
        <line x1="1705" y1="0" x2="1585" y2="1080" stroke="#dbeafe" stroke-width="2" opacity="0.16"/>
        <line x1="1760" y1="0" x2="1640" y2="1080" stroke="#dbeafe" stroke-width="2" opacity="0.16"/>
        <line x1="1815" y1="0" x2="1695" y2="1080" stroke="#dbeafe" stroke-width="2" opacity="0.16"/>
        <line x1="1870" y1="0" x2="1750" y2="1080" stroke="#dbeafe" stroke-width="2" opacity="0.16"/>
        <line x1="1925" y1="0" x2="1805" y2="1080" stroke="#dbeafe" stroke-width="2" opacity="0.16"/>
        <line x1="1980" y1="0" x2="1860" y2="1080" stroke="#dbeafe" stroke-width="2" opacity="0.16"/>
        <line x1="2035" y1="0" x2="1915" y2="1080" stroke="#dbeafe" stroke-width="2" opacity="0.16"/>
        <line x1="2090" y1="0" x2="1970" y2="1080" stroke="#dbeafe" stroke-width="2" opacity="0.16"/>
        <line x1="2145" y1="0" x2="2025" y2="1080" stroke="#dbeafe" stroke-width="2" opacity="0.16"/>
        <line x1="2200" y1="0" x2="2080" y2="1080" stroke="#dbeafe" stroke-width="2" opacity="0.16"/>
        <line x1="2255" y1="0" x2="2135" y2="1080" stroke="#dbeafe" stroke-width="2" opacity="0.16"/>
    </g>
    <g opacity="0.8" filter="url(#softBlur)">
        <ellipse cx="1384" cy="464" rx="24" ry="5" fill="#fff" opacity="0.025"/>
        <ellipse cx="425" cy="855" rx="42" ry="12" fill="#fff" opacity="0.031"/>
        <ellipse cx="1386" cy="12" rx="60" ry="19" fill="#fff" opacity="0.037"/>
        <ellipse cx="427" cy="712" rx="78" ry="26" fill="#fff" opacity="0.043"/>
        <ellipse cx="1388" cy="23" rx="96" ry="5" fill="#fff" opacity="0.049"/>
        <ellipse cx="429" cy="260" rx="24" ry="12" fill="#fff" opacity="0.055"/>
        <ellipse cx="1390" cy="420" rx="42" ry="19" fill="#fff" opacity="0.025"/>
        <ellipse cx="431" cy="2" rx="60" ry="26" fill="#fff" opacity="0.031"/>
        <ellipse cx="1392" cy="914" rx="78" ry="5" fill="#fff" opacity="0.037"/>
        <ellipse cx="433" cy="872" rx="96" ry="12" fill="#fff" opacity="0.043"/>
        <ellipse cx="1394" cy="352" rx="24" ry="19" fill="#fff" opacity="0.049"/>
        <ellipse cx="435" cy="134" rx="42" ry="26" fill="#fff" opacity="0.055"/>
        <ellipse cx="1396" cy="66" rx="60" ry="5" fill="#fff" opacity="0.025"/>
        <ellipse cx="437" cy="74" rx="78" ry="12" fill="#fff" opacity="0.031"/>
        <ellipse cx="1398" cy="659" rx="96" ry="19" fill="#fff" opacity="0.037"/>
        <ellipse cx="439" cy="993" rx="24" ry="26" fill="#fff" opacity="0.043"/>
        <ellipse cx="1400" cy="712" rx="42" ry="5" fill="#fff" opacity="0.049"/>
        <ellipse cx="441" cy="23" rx="60" ry="12" fill="#fff" opacity="0.055"/>
        <ellipse cx="1402" cy="260" rx="78" ry="19" fill="#fff" opacity="0.025"/>
        <ellipse cx="443" cy="960" rx="96" ry="26" fill="#fff" opacity="0.031"/>
        <ellipse cx="1404" cy="271" rx="24" ry="5" fill="#fff" opacity="0.037"/>
        <ellipse cx="445" cy="508" rx="42" ry="12" fill="#fff" opacity="0.043"/>
        <ellipse cx="1406" cy="668" rx="60" ry="19" fill="#fff" opacity="0.049"/>
        <ellipse cx="447" cy="250" rx="78" ry="26" fill="#fff" opacity="0.055"/>
        <ellipse cx="1408" cy="82" rx="96" ry="5" fill="#fff" opacity="0.025"/>
        <ellipse cx="449" cy="40" rx="24" ry="12" fill="#fff" opacity="0.031"/>
        <ellipse cx="1410" cy="600" rx="42" ry="19" fill="#fff" opacity="0.037"/>
        <ellipse cx="451" cy="382" rx="60" ry="26" fill="#fff" opacity="0.043"/>
        <ellipse cx="1412" cy="314" rx="78" ry="5" fill="#fff" opacity="0.049"/>
        <ellipse cx="453" cy="322" rx="96" ry="12" fill="#fff" opacity="0.055"/>
        <ellipse cx="1414" cy="907" rx="24" ry="19" fill="#fff" opacity="0.025"/>
        <ellipse cx="455" cy="161" rx="42" ry="26" fill="#fff" opacity="0.031"/>
        <ellipse cx="1416" cy="960" rx="60" ry="5" fill="#fff" opacity="0.037"/>
        <ellipse cx="457" cy="271" rx="78" ry="12" fill="#fff" opacity="0.043"/>
        <ellipse cx="1418" cy="508" rx="96" ry="19" fill="#fff" opacity="0.049"/>
        <ellipse cx="459" cy="128" rx="24" ry="26" fill="#fff" opacity="0.055"/>
        <ellipse cx="1420" cy="519" rx="42" ry="5" fill="#fff" opacity="0.025"/>
        <ellipse cx="461" cy="756" rx="60" ry="12" fill="#fff" opacity="0.031"/>
        <ellipse cx="1422" cy="916" rx="78" ry="19" fill="#fff" opacity="0.037"/>
        <ellipse cx="463" cy="498" rx="96" ry="26" fill="#fff" opacity="0.043"/>
        <ellipse cx="1424" cy="330" rx="24" ry="5" fill="#fff" opacity="0.049"/>
        <ellipse cx="465" cy="288" rx="42" ry="12" fill="#fff" opacity="0.055"/>
        <ellipse cx="1426" cy="848" rx="60" ry="19" fill="#fff" opacity="0.025"/>
        <ellipse cx="467" cy="630" rx="78" ry="26" fill="#fff" opacity="0.031"/>
        <ellipse cx="1428" cy="562" rx="96" ry="5" fill="#fff" opacity="0.037"/>
        <ellipse cx="469" cy="570" rx="24" ry="12" fill="#fff" opacity="0.043"/>
        <ellipse cx="1430" cy="75" rx="42" ry="19" fill="#fff" opacity="0.049"/>
        <ellipse cx="471" cy="409" rx="60" ry="26" fill="#fff" opacity="0.055"/>
        <ellipse cx="1432" cy="128" rx="78" ry="5" fill="#fff" opacity="0.025"/>
        <ellipse cx="473" cy="519" rx="96" ry="12" fill="#fff" opacity="0.031"/>
        <ellipse cx="1434" cy="756" rx="24" ry="19" fill="#fff" opacity="0.037"/>
        <ellipse cx="475" cy="376" rx="42" ry="26" fill="#fff" opacity="0.043"/>
        <ellipse cx="1436" cy="767" rx="60" ry="5" fill="#fff" opacity="0.049"/>
        <ellipse cx="477" cy="1004" rx="78" ry="12" fill="#fff" opacity="0.055"/>
        <ellipse cx="1438" cy="84" rx="96" ry="19" fill="#fff" opacity="0.025"/>
        <ellipse cx="479" cy="746" rx="24" ry="26" fill="#fff" opacity="0.031"/>
    </g>
    <rect width="1920" height="1080" fill="#000" opacity="0.08"/>
    <rect y="740" width="1920" height="340" fill="#000" opacity="0.32"/>
</svg>
