<?xml version="1.0" encoding="UTF-8"?>
<svg xmlns="http://www.w3.org/2000/svg" width="1920" height="1080" viewBox="0 0 1920 1080" role="img" aria-label="废钟响起节点 HUD 背景">
    <title>废钟响起节点 HUD 背景</title>
    <defs>
        <radialGradient id="sceneGlow" cx="28%" cy="18%" r="78%">
            <stop offset="0%" stop-color="#94a3b8" stop-opacity="0.72"/>
            <stop offset="42%" stop-color="#23121c" stop-opacity="0.76"/>
            <stop offset="100%" stop-color="#080b12" stop-opacity="1"/>
        </radialGradient>
        <linearGradient id="sceneDepth" x1="0%" y1="0%" x2="100%" y2="100%">
            <stop offset="0%" stop-color="#080b12"/>
            <stop offset="55%" stop-color="#23121c"/>
            <stop offset="100%" stop-color="#581c87"/>
        </linearGradient>
        <filter id="softBlur"><feGaussianBlur stdDeviation="18"/></filter>
    </defs>
    <rect width="1920" height="1080" fill="url(#sceneDepth)"/>
    <rect width="1920" height="1080" fill="url(#sceneGlow)" opacity="0.88"/>
    <g opacity="0.9">
        
        <rect x="1285" y="140" width="150" height="750" rx="12" fill="#030712" opacity="0.72"/>
        <ellipse cx="1360" cy="146" rx="116" ry="34" fill="#030712" opacity="0.78"/>
        <path d="M1280 345 Q1360 280 1440 345 L1410 435 Q1360 475 1310 435 Z" fill="#581c87" opacity="0.62"/>
        <line x1="1360" y1="205" x2="1360" y2="345" stroke="#94a3b8" stroke-width="5" opacity="0.7"/>
        <path d="M0 850 C350 780 680 930 1040 840 S1640 760 1920 845 L1920 1080 L0 1080 Z" fill="#020617" opacity="0.62"/>
    </g>
    <g opacity="0.8" filter="url(#softBlur)">
        <ellipse cx="801" cy="411" rx="24" ry="5" fill="#fff" opacity="0.025"/>
        <ellipse cx="1709" cy="828" rx="42" ry="12" fill="#fff" opacity="0.031"/>
        <ellipse cx="697" cy="1078" rx="60" ry="19" fill="#fff" opacity="0.037"/>
        <ellipse cx="1605" cy="705" rx="78" ry="26" fill="#fff" opacity="0.043"/>
        <ellipse cx="593" cy="20" rx="96" ry="5" fill="#fff" opacity="0.049"/>
        <ellipse cx="1501" cy="259" rx="24" ry="12" fill="#fff" opacity="0.055"/>
        <ellipse cx="489" cy="960" rx="42" ry="19" fill="#fff" opacity="0.025"/>
        <ellipse cx="1397" cy="812" rx="60" ry="26" fill="#fff" opacity="0.031"/>
        <ellipse cx="385" cy="779" rx="78" ry="5" fill="#fff" opacity="0.037"/>
        <ellipse cx="1293" cy="804" rx="96" ry="12" fill="#fff" opacity="0.043"/>
        <ellipse cx="281" cy="858" rx="24" ry="19" fill="#fff" opacity="0.049"/>
        <ellipse cx="1189" cy="927" rx="42" ry="26" fill="#fff" opacity="0.055"/>
        <ellipse cx="177" cy="1003" rx="60" ry="5" fill="#fff" opacity="0.025"/>
        <ellipse cx="1085" cy="2" rx="78" ry="12" fill="#fff" opacity="0.031"/>
        <ellipse cx="73" cy="623" rx="96" ry="19" fill="#fff" opacity="0.037"/>
        <ellipse cx="981" cy="975" rx="24" ry="26" fill="#fff" opacity="0.043"/>
        <ellipse cx="1889" cy="659" rx="42" ry="5" fill="#fff" opacity="0.049"/>
        <ellipse cx="877" cy="1076" rx="60" ry="12" fill="#fff" opacity="0.055"/>
        <ellipse cx="1785" cy="246" rx="78" ry="19" fill="#fff" opacity="0.025"/>
        <ellipse cx="773" cy="953" rx="96" ry="26" fill="#fff" opacity="0.031"/>
        <ellipse cx="1681" cy="268" rx="24" ry="5" fill="#fff" opacity="0.037"/>
        <ellipse cx="669" cy="507" rx="42" ry="12" fill="#fff" opacity="0.043"/>
        <ellipse cx="1577" cy="128" rx="60" ry="19" fill="#fff" opacity="0.049"/>
        <ellipse cx="565" cy="1060" rx="78" ry="26" fill="#fff" opacity="0.055"/>
        <ellipse cx="1473" cy="1027" rx="96" ry="5" fill="#fff" opacity="0.025"/>
        <ellipse cx="461" cy="1052" rx="24" ry="12" fill="#fff" opacity="0.031"/>
        <ellipse cx="1369" cy="26" rx="42" ry="19" fill="#fff" opacity="0.037"/>
        <ellipse cx="357" cy="95" rx="60" ry="26" fill="#fff" opacity="0.043"/>
        <ellipse cx="1265" cy="171" rx="78" ry="5" fill="#fff" opacity="0.049"/>
        <ellipse cx="253" cy="250" rx="96" ry="12" fill="#fff" opacity="0.055"/>
        <ellipse cx="1161" cy="871" rx="24" ry="19" fill="#fff" opacity="0.025"/>
        <ellipse cx="149" cy="143" rx="42" ry="26" fill="#fff" opacity="0.031"/>
        <ellipse cx="1057" cy="907" rx="60" ry="5" fill="#fff" opacity="0.037"/>
        <ellipse cx="45" cy="244" rx="78" ry="12" fill="#fff" opacity="0.043"/>
        <ellipse cx="953" cy="494" rx="96" ry="19" fill="#fff" opacity="0.049"/>
        <ellipse cx="1861" cy="121" rx="24" ry="26" fill="#fff" opacity="0.055"/>
        <ellipse cx="849" cy="516" rx="42" ry="5" fill="#fff" opacity="0.025"/>
        <ellipse cx="1757" cy="755" rx="60" ry="12" fill="#fff" opacity="0.031"/>
        <ellipse cx="745" cy="376" rx="78" ry="19" fill="#fff" opacity="0.037"/>
        <ellipse cx="1653" cy="228" rx="96" ry="26" fill="#fff" opacity="0.043"/>
        <ellipse cx="641" cy="195" rx="24" ry="5" fill="#fff" opacity="0.049"/>
        <ellipse cx="1549" cy="220" rx="42" ry="12" fill="#fff" opacity="0.055"/>
        <ellipse cx="537" cy="274" rx="60" ry="19" fill="#fff" opacity="0.025"/>
        <ellipse cx="1445" cy="343" rx="78" ry="26" fill="#fff" opacity="0.031"/>
        <ellipse cx="433" cy="419" rx="96" ry="5" fill="#fff" opacity="0.037"/>
        <ellipse cx="1341" cy="498" rx="24" ry="12" fill="#fff" opacity="0.043"/>
        <ellipse cx="329" cy="39" rx="42" ry="19" fill="#fff" opacity="0.049"/>
        <ellipse cx="1237" cy="391" rx="60" ry="26" fill="#fff" opacity="0.055"/>
        <ellipse cx="225" cy="75" rx="78" ry="5" fill="#fff" opacity="0.025"/>
        <ellipse cx="1133" cy="492" rx="96" ry="12" fill="#fff" opacity="0.031"/>
        <ellipse cx="121" cy="742" rx="24" ry="19" fill="#fff" opacity="0.037"/>
        <ellipse cx="1029" cy="369" rx="42" ry="26" fill="#fff" opacity="0.043"/>
        <ellipse cx="17" cy="764" rx="60" ry="5" fill="#fff" opacity="0.049"/>
        <ellipse cx="925" cy="1003" rx="78" ry="12" fill="#fff" opacity="0.055"/>
        <ellipse cx="1833" cy="624" rx="96" ry="19" fill="#fff" opacity="0.025"/>
        <ellipse cx="821" cy="476" rx="24" ry="26" fill="#fff" opacity="0.031"/>
    </g>
    <rect width="1920" height="1080" fill="#000" opacity="0.08"/>
    <rect y="740" width="1920" height="340" fill="#000" opacity="0.32"/>
</svg>
