<?xml version="1.0" encoding="UTF-8"?>
<svg xmlns="http://www.w3.org/2000/svg" width="1920" height="1080" viewBox="0 0 1920 1080" role="img" aria-label="混沌焰角斗场">
    <title>混沌焰角斗场</title>
    <defs>
        <radialGradient id="sceneGlow" cx="28%" cy="18%" r="78%">
            <stop offset="0%" stop-color="#fed7aa" stop-opacity="0.72"/>
            <stop offset="42%" stop-color="#7f1d1d" stop-opacity="0.76"/>
            <stop offset="100%" stop-color="#1c1007" stop-opacity="1"/>
        </radialGradient>
        <linearGradient id="sceneDepth" x1="0%" y1="0%" x2="100%" y2="100%">
            <stop offset="0%" stop-color="#1c1007"/>
            <stop offset="55%" stop-color="#7f1d1d"/>
            <stop offset="100%" stop-color="#b45309"/>
        </linearGradient>
        <filter id="softBlur"><feGaussianBlur stdDeviation="18"/></filter>
    </defs>
    <rect width="1920" height="1080" fill="url(#sceneDepth)"/>
    <rect width="1920" height="1080" fill="url(#sceneGlow)" opacity="0.88"/>
    <g opacity="0.9">
        
        <path d="M0 760 C420 690 750 830 1120 735 S1650 690 1920 740 L1920 1080 L0 1080 Z" fill="#642b0e" opacity="0.58"/>
        <rect x="180" y="260" width="14" height="530" fill="#140c07" opacity="0.72"/><path d="M194 280 L330 330 L194 378 Z" fill="#b45309" opacity="0.7"/>
        <rect x="390" y="260" width="14" height="530" fill="#140c07" opacity="0.72"/><path d="M404 280 L540 330 L404 378 Z" fill="#b45309" opacity="0.7"/>
        <rect x="600" y="260" width="14" height="530" fill="#140c07" opacity="0.72"/><path d="M614 280 L750 330 L614 378 Z" fill="#b45309" opacity="0.7"/>
        <rect x="810" y="260" width="14" height="530" fill="#140c07" opacity="0.72"/><path d="M824 280 L960 330 L824 378 Z" fill="#b45309" opacity="0.7"/>
        <rect x="1020" y="260" width="14" height="530" fill="#140c07" opacity="0.72"/><path d="M1034 280 L1170 330 L1034 378 Z" fill="#b45309" opacity="0.7"/>
        <rect x="1230" y="260" width="14" height="530" fill="#140c07" opacity="0.72"/><path d="M1244 280 L1380 330 L1244 378 Z" fill="#b45309" opacity="0.7"/>
        <rect x="1440" y="260" width="14" height="530" fill="#140c07" opacity="0.72"/><path d="M1454 280 L1590 330 L1454 378 Z" fill="#b45309" opacity="0.7"/>
        <rect x="1650" y="260" width="14" height="530" fill="#140c07" opacity="0.72"/><path d="M1664 280 L1800 330 L1664 378 Z" fill="#b45309" opacity="0.7"/>
    </g>
    <g opacity="0.8" filter="url(#softBlur)">
        <ellipse cx="1850" cy="670" rx="24" ry="5" fill="#fff" opacity="0.025"/>
        <ellipse cx="1457" cy="418" rx="42" ry="12" fill="#fff" opacity="0.031"/>
        <ellipse cx="1064" cy="873" rx="60" ry="19" fill="#fff" opacity="0.037"/>
        <ellipse cx="671" cy="62" rx="78" ry="26" fill="#fff" opacity="0.043"/>
        <ellipse cx="278" cy="778" rx="96" ry="5" fill="#fff" opacity="0.049"/>
        <ellipse cx="1805" cy="638" rx="24" ry="12" fill="#fff" opacity="0.055"/>
        <ellipse cx="1412" cy="69" rx="42" ry="19" fill="#fff" opacity="0.025"/>
        <ellipse cx="1019" cy="366" rx="60" ry="26" fill="#fff" opacity="0.031"/>
        <ellipse cx="626" cy="16" rx="78" ry="5" fill="#fff" opacity="0.037"/>
        <ellipse cx="233" cy="423" rx="96" ry="12" fill="#fff" opacity="0.043"/>
        <ellipse cx="1760" cy="668" rx="24" ry="19" fill="#fff" opacity="0.049"/>
        <ellipse cx="1367" cy="832" rx="42" ry="26" fill="#fff" opacity="0.055"/>
        <ellipse cx="974" cy="955" rx="60" ry="5" fill="#fff" opacity="0.025"/>
        <ellipse cx="581" cy="1058" rx="78" ry="12" fill="#fff" opacity="0.031"/>
        <ellipse cx="188" cy="611" rx="96" ry="19" fill="#fff" opacity="0.037"/>
        <ellipse cx="1715" cy="429" rx="24" ry="26" fill="#fff" opacity="0.043"/>
        <ellipse cx="1322" cy="918" rx="42" ry="5" fill="#fff" opacity="0.049"/>
        <ellipse cx="929" cy="666" rx="60" ry="12" fill="#fff" opacity="0.055"/>
        <ellipse cx="536" cy="41" rx="78" ry="19" fill="#fff" opacity="0.025"/>
        <ellipse cx="143" cy="310" rx="96" ry="26" fill="#fff" opacity="0.031"/>
        <ellipse cx="1670" cy="1026" rx="24" ry="5" fill="#fff" opacity="0.037"/>
        <ellipse cx="1277" cy="886" rx="42" ry="12" fill="#fff" opacity="0.043"/>
        <ellipse cx="884" cy="317" rx="60" ry="19" fill="#fff" opacity="0.049"/>
        <ellipse cx="491" cy="614" rx="78" ry="26" fill="#fff" opacity="0.055"/>
        <ellipse cx="98" cy="264" rx="96" ry="5" fill="#fff" opacity="0.025"/>
        <ellipse cx="1625" cy="671" rx="24" ry="12" fill="#fff" opacity="0.031"/>
        <ellipse cx="1232" cy="916" rx="42" ry="19" fill="#fff" opacity="0.037"/>
        <ellipse cx="839" cy="0" rx="60" ry="26" fill="#fff" opacity="0.043"/>
        <ellipse cx="446" cy="123" rx="78" ry="5" fill="#fff" opacity="0.049"/>
        <ellipse cx="53" cy="226" rx="96" ry="12" fill="#fff" opacity="0.055"/>
        <ellipse cx="1580" cy="859" rx="24" ry="19" fill="#fff" opacity="0.025"/>
        <ellipse cx="1187" cy="677" rx="42" ry="26" fill="#fff" opacity="0.031"/>
        <ellipse cx="794" cy="86" rx="60" ry="5" fill="#fff" opacity="0.037"/>
        <ellipse cx="401" cy="914" rx="78" ry="12" fill="#fff" opacity="0.043"/>
        <ellipse cx="8" cy="289" rx="96" ry="19" fill="#fff" opacity="0.049"/>
        <ellipse cx="1535" cy="558" rx="24" ry="26" fill="#fff" opacity="0.055"/>
        <ellipse cx="1142" cy="194" rx="42" ry="5" fill="#fff" opacity="0.025"/>
        <ellipse cx="749" cy="54" rx="60" ry="12" fill="#fff" opacity="0.031"/>
        <ellipse cx="356" cy="565" rx="78" ry="19" fill="#fff" opacity="0.037"/>
        <ellipse cx="1883" cy="862" rx="96" ry="26" fill="#fff" opacity="0.043"/>
        <ellipse cx="1490" cy="512" rx="24" ry="5" fill="#fff" opacity="0.049"/>
        <ellipse cx="1097" cy="919" rx="42" ry="12" fill="#fff" opacity="0.055"/>
        <ellipse cx="704" cy="84" rx="60" ry="19" fill="#fff" opacity="0.025"/>
        <ellipse cx="311" cy="248" rx="78" ry="26" fill="#fff" opacity="0.031"/>
        <ellipse cx="1838" cy="371" rx="96" ry="5" fill="#fff" opacity="0.037"/>
        <ellipse cx="1445" cy="474" rx="24" ry="12" fill="#fff" opacity="0.043"/>
        <ellipse cx="1052" cy="27" rx="42" ry="19" fill="#fff" opacity="0.049"/>
        <ellipse cx="659" cy="925" rx="60" ry="26" fill="#fff" opacity="0.055"/>
        <ellipse cx="266" cy="334" rx="78" ry="5" fill="#fff" opacity="0.025"/>
        <ellipse cx="1793" cy="82" rx="96" ry="12" fill="#fff" opacity="0.031"/>
        <ellipse cx="1400" cy="537" rx="24" ry="19" fill="#fff" opacity="0.037"/>
        <ellipse cx="1007" cy="806" rx="42" ry="26" fill="#fff" opacity="0.043"/>
        <ellipse cx="614" cy="442" rx="60" ry="5" fill="#fff" opacity="0.049"/>
        <ellipse cx="221" cy="302" rx="78" ry="12" fill="#fff" opacity="0.055"/>
        <ellipse cx="1748" cy="813" rx="96" ry="19" fill="#fff" opacity="0.025"/>
        <ellipse cx="1355" cy="30" rx="24" ry="26" fill="#fff" opacity="0.031"/>
    </g>
    <rect width="1920" height="1080" fill="#000" opacity="0.08"/>
    <rect y="740" width="1920" height="340" fill="#000" opacity="0.32"/>
</svg>
