<?xml version="1.0" encoding="UTF-8"?>
<svg xmlns="http://www.w3.org/2000/svg" width="1920" height="1080" viewBox="0 0 1920 1080" role="img" aria-label="墓所内部">
    <title>墓所内部</title>
    <defs>
        <radialGradient id="sceneGlow" cx="28%" cy="18%" r="78%">
            <stop offset="0%" stop-color="#d9f99d" stop-opacity="0.72"/>
            <stop offset="42%" stop-color="#14532d" stop-opacity="0.76"/>
            <stop offset="100%" stop-color="#071711" stop-opacity="1"/>
        </radialGradient>
        <linearGradient id="sceneDepth" x1="0%" y1="0%" x2="100%" y2="100%">
            <stop offset="0%" stop-color="#071711"/>
            <stop offset="55%" stop-color="#14532d"/>
            <stop offset="100%" stop-color="#4d7c0f"/>
        </linearGradient>
        <filter id="softBlur"><feGaussianBlur stdDeviation="18"/></filter>
    </defs>
    <rect width="1920" height="1080" fill="url(#sceneDepth)"/>
    <rect width="1920" height="1080" fill="url(#sceneGlow)" opacity="0.88"/>
    <g opacity="0.9">
        
        <line x1="0" y1="120" x2="-100" y2="1080" stroke="#052e1b" stroke-width="8" opacity="0.42"/>
        <line x1="113" y1="120" x2="13" y2="1080" stroke="#052e1b" stroke-width="8" opacity="0.42"/>
        <line x1="226" y1="120" x2="126" y2="1080" stroke="#052e1b" stroke-width="8" opacity="0.42"/>
        <line x1="339" y1="120" x2="239" y2="1080" stroke="#052e1b" stroke-width="8" opacity="0.42"/>
        <line x1="452" y1="120" x2="352" y2="1080" stroke="#052e1b" stroke-width="8" opacity="0.42"/>
        <line x1="565" y1="120" x2="465" y2="1080" stroke="#052e1b" stroke-width="8" opacity="0.42"/>
        <line x1="678" y1="120" x2="578" y2="1080" stroke="#052e1b" stroke-width="8" opacity="0.42"/>
        <line x1="791" y1="120" x2="691" y2="1080" stroke="#052e1b" stroke-width="8" opacity="0.42"/>
        <line x1="904" y1="120" x2="804" y2="1080" stroke="#052e1b" stroke-width="8" opacity="0.42"/>
        <line x1="1017" y1="120" x2="917" y2="1080" stroke="#052e1b" stroke-width="8" opacity="0.42"/>
        <line x1="1130" y1="120" x2="1030" y2="1080" stroke="#052e1b" stroke-width="8" opacity="0.42"/>
        <line x1="1243" y1="120" x2="1143" y2="1080" stroke="#052e1b" stroke-width="8" opacity="0.42"/>
        <line x1="1356" y1="120" x2="1256" y2="1080" stroke="#052e1b" stroke-width="8" opacity="0.42"/>
        <line x1="1469" y1="120" x2="1369" y2="1080" stroke="#052e1b" stroke-width="8" opacity="0.42"/>
        <line x1="1582" y1="120" x2="1482" y2="1080" stroke="#052e1b" stroke-width="8" opacity="0.42"/>
        <line x1="1695" y1="120" x2="1595" y2="1080" stroke="#052e1b" stroke-width="8" opacity="0.42"/>
        <line x1="1808" y1="120" x2="1708" y2="1080" stroke="#052e1b" stroke-width="8" opacity="0.42"/>
        <line x1="1" y1="120" x2="-99" y2="1080" stroke="#052e1b" stroke-width="8" opacity="0.42"/>
        <line x1="114" y1="120" x2="14" y2="1080" stroke="#052e1b" stroke-width="8" opacity="0.42"/>
        <line x1="227" y1="120" x2="127" y2="1080" stroke="#052e1b" stroke-width="8" opacity="0.42"/>
        <line x1="340" y1="120" x2="240" y2="1080" stroke="#052e1b" stroke-width="8" opacity="0.42"/>
        <line x1="453" y1="120" x2="353" y2="1080" stroke="#052e1b" stroke-width="8" opacity="0.42"/>
        <line x1="566" y1="120" x2="466" y2="1080" stroke="#052e1b" stroke-width="8" opacity="0.42"/>
        <line x1="679" y1="120" x2="579" y2="1080" stroke="#052e1b" stroke-width="8" opacity="0.42"/>
        <line x1="792" y1="120" x2="692" y2="1080" stroke="#052e1b" stroke-width="8" opacity="0.42"/>
        <line x1="905" y1="120" x2="805" y2="1080" stroke="#052e1b" stroke-width="8" opacity="0.42"/>
        <line x1="1018" y1="120" x2="918" y2="1080" stroke="#052e1b" stroke-width="8" opacity="0.42"/>
        <line x1="1131" y1="120" x2="1031" y2="1080" stroke="#052e1b" stroke-width="8" opacity="0.42"/>
        <line x1="1244" y1="120" x2="1144" y2="1080" stroke="#052e1b" stroke-width="8" opacity="0.42"/>
        <line x1="1357" y1="120" x2="1257" y2="1080" stroke="#052e1b" stroke-width="8" opacity="0.42"/>
        <line x1="1470" y1="120" x2="1370" y2="1080" stroke="#052e1b" stroke-width="8" opacity="0.42"/>
        <line x1="1583" y1="120" x2="1483" y2="1080" stroke="#052e1b" stroke-width="8" opacity="0.42"/>
        <line x1="1696" y1="120" x2="1596" y2="1080" stroke="#052e1b" stroke-width="8" opacity="0.42"/>
        <line x1="1809" y1="120" x2="1709" y2="1080" stroke="#052e1b" stroke-width="8" opacity="0.42"/>
        <line x1="2" y1="120" x2="-98" y2="1080" stroke="#052e1b" stroke-width="8" opacity="0.42"/>
        <line x1="115" y1="120" x2="15" y2="1080" stroke="#052e1b" stroke-width="8" opacity="0.42"/>
        <rect x="735" y="438" width="450" height="460" rx="26" fill="#20261f" opacity="0.56"/>
        <ellipse cx="960" cy="420" rx="300" ry="70" fill="#d9f99d" opacity="0.18"/>
    </g>
    <g opacity="0.8" filter="url(#softBlur)">
        <ellipse cx="1802" cy="142" rx="24" ry="5" fill="#fff" opacity="0.025"/>
        <ellipse cx="881" cy="154" rx="42" ry="12" fill="#fff" opacity="0.031"/>
        <ellipse cx="1880" cy="741" rx="60" ry="19" fill="#fff" opacity="0.037"/>
        <ellipse cx="959" cy="1076" rx="78" ry="26" fill="#fff" opacity="0.043"/>
        <ellipse cx="38" cy="745" rx="96" ry="5" fill="#fff" opacity="0.049"/>
        <ellipse cx="1037" cy="621" rx="24" ry="12" fill="#fff" opacity="0.055"/>
        <ellipse cx="116" cy="61" rx="42" ry="19" fill="#fff" opacity="0.025"/>
        <ellipse cx="1115" cy="902" rx="60" ry="26" fill="#fff" opacity="0.031"/>
        <ellipse cx="194" cy="824" rx="78" ry="5" fill="#fff" opacity="0.037"/>
        <ellipse cx="1193" cy="287" rx="96" ry="12" fill="#fff" opacity="0.043"/>
        <ellipse cx="272" cy="600" rx="24" ry="19" fill="#fff" opacity="0.049"/>
        <ellipse cx="1271" cy="258" rx="42" ry="26" fill="#fff" opacity="0.055"/>
        <ellipse cx="350" cy="128" rx="60" ry="5" fill="#fff" opacity="0.025"/>
        <ellipse cx="1349" cy="645" rx="78" ry="12" fill="#fff" opacity="0.031"/>
        <ellipse cx="428" cy="945" rx="96" ry="19" fill="#fff" opacity="0.037"/>
        <ellipse cx="1427" cy="596" rx="24" ry="26" fill="#fff" opacity="0.043"/>
        <ellipse cx="506" cy="390" rx="42" ry="5" fill="#fff" opacity="0.049"/>
        <ellipse cx="1505" cy="402" rx="60" ry="12" fill="#fff" opacity="0.055"/>
        <ellipse cx="584" cy="989" rx="78" ry="19" fill="#fff" opacity="0.025"/>
        <ellipse cx="1583" cy="244" rx="96" ry="26" fill="#fff" opacity="0.031"/>
        <ellipse cx="662" cy="993" rx="24" ry="5" fill="#fff" opacity="0.037"/>
        <ellipse cx="1661" cy="869" rx="42" ry="12" fill="#fff" opacity="0.043"/>
        <ellipse cx="740" cy="309" rx="60" ry="19" fill="#fff" opacity="0.049"/>
        <ellipse cx="1739" cy="70" rx="78" ry="26" fill="#fff" opacity="0.055"/>
        <ellipse cx="818" cy="1072" rx="96" ry="5" fill="#fff" opacity="0.025"/>
        <ellipse cx="1817" cy="535" rx="24" ry="12" fill="#fff" opacity="0.031"/>
        <ellipse cx="896" cy="848" rx="42" ry="19" fill="#fff" opacity="0.037"/>
        <ellipse cx="1895" cy="506" rx="60" ry="26" fill="#fff" opacity="0.043"/>
        <ellipse cx="974" cy="376" rx="78" ry="5" fill="#fff" opacity="0.049"/>
        <ellipse cx="53" cy="893" rx="96" ry="12" fill="#fff" opacity="0.055"/>
        <ellipse cx="1052" cy="113" rx="24" ry="19" fill="#fff" opacity="0.025"/>
        <ellipse cx="131" cy="844" rx="42" ry="26" fill="#fff" opacity="0.031"/>
        <ellipse cx="1130" cy="638" rx="60" ry="5" fill="#fff" opacity="0.037"/>
        <ellipse cx="209" cy="650" rx="78" ry="12" fill="#fff" opacity="0.043"/>
        <ellipse cx="1208" cy="157" rx="96" ry="19" fill="#fff" opacity="0.049"/>
        <ellipse cx="287" cy="492" rx="24" ry="26" fill="#fff" opacity="0.055"/>
        <ellipse cx="1286" cy="161" rx="42" ry="5" fill="#fff" opacity="0.025"/>
        <ellipse cx="365" cy="37" rx="60" ry="12" fill="#fff" opacity="0.031"/>
        <ellipse cx="1364" cy="557" rx="78" ry="19" fill="#fff" opacity="0.037"/>
        <ellipse cx="443" cy="318" rx="96" ry="26" fill="#fff" opacity="0.043"/>
        <ellipse cx="1442" cy="240" rx="24" ry="5" fill="#fff" opacity="0.049"/>
        <ellipse cx="521" cy="783" rx="42" ry="12" fill="#fff" opacity="0.055"/>
        <ellipse cx="1520" cy="16" rx="60" ry="19" fill="#fff" opacity="0.025"/>
        <ellipse cx="599" cy="754" rx="78" ry="26" fill="#fff" opacity="0.031"/>
        <ellipse cx="1598" cy="624" rx="96" ry="5" fill="#fff" opacity="0.037"/>
        <ellipse cx="677" cy="61" rx="24" ry="12" fill="#fff" opacity="0.043"/>
        <ellipse cx="1676" cy="361" rx="42" ry="19" fill="#fff" opacity="0.049"/>
        <ellipse cx="755" cy="12" rx="60" ry="26" fill="#fff" opacity="0.055"/>
        <ellipse cx="1754" cy="886" rx="78" ry="5" fill="#fff" opacity="0.025"/>
        <ellipse cx="833" cy="898" rx="96" ry="12" fill="#fff" opacity="0.031"/>
        <ellipse cx="1832" cy="405" rx="24" ry="19" fill="#fff" opacity="0.037"/>
        <ellipse cx="911" cy="740" rx="42" ry="26" fill="#fff" opacity="0.043"/>
        <ellipse cx="1910" cy="409" rx="60" ry="5" fill="#fff" opacity="0.049"/>
        <ellipse cx="989" cy="285" rx="78" ry="12" fill="#fff" opacity="0.055"/>
        <ellipse cx="68" cy="805" rx="96" ry="19" fill="#fff" opacity="0.025"/>
        <ellipse cx="1067" cy="566" rx="24" ry="26" fill="#fff" opacity="0.031"/>
    </g>
    <rect width="1920" height="1080" fill="#000" opacity="0.08"/>
    <rect y="740" width="1920" height="340" fill="#000" opacity="0.32"/>
</svg>
