<?xml version="1.0" encoding="UTF-8"?>
<svg xmlns="http://www.w3.org/2000/svg" width="1920" height="1080" viewBox="0 0 1920 1080" role="img" aria-label="圣域结界入口">
    <title>圣域结界入口</title>
    <defs>
        <radialGradient id="sceneGlow" cx="28%" cy="18%" r="78%">
            <stop offset="0%" stop-color="#d9f99d" stop-opacity="0.72"/>
            <stop offset="42%" stop-color="#14532d" stop-opacity="0.76"/>
            <stop offset="100%" stop-color="#071711" stop-opacity="1"/>
        </radialGradient>
        <linearGradient id="sceneDepth" x1="0%" y1="0%" x2="100%" y2="100%">
            <stop offset="0%" stop-color="#071711"/>
            <stop offset="55%" stop-color="#14532d"/>
            <stop offset="100%" stop-color="#4d7c0f"/>
        </linearGradient>
        <filter id="softBlur"><feGaussianBlur stdDeviation="18"/></filter>
    </defs>
    <rect width="1920" height="1080" fill="url(#sceneDepth)"/>
    <rect width="1920" height="1080" fill="url(#sceneGlow)" opacity="0.88"/>
    <g opacity="0.9">
        
        <line x1="0" y1="120" x2="-100" y2="1080" stroke="#052e1b" stroke-width="8" opacity="0.42"/>
        <line x1="113" y1="120" x2="13" y2="1080" stroke="#052e1b" stroke-width="8" opacity="0.42"/>
        <line x1="226" y1="120" x2="126" y2="1080" stroke="#052e1b" stroke-width="8" opacity="0.42"/>
        <line x1="339" y1="120" x2="239" y2="1080" stroke="#052e1b" stroke-width="8" opacity="0.42"/>
        <line x1="452" y1="120" x2="352" y2="1080" stroke="#052e1b" stroke-width="8" opacity="0.42"/>
        <line x1="565" y1="120" x2="465" y2="1080" stroke="#052e1b" stroke-width="8" opacity="0.42"/>
        <line x1="678" y1="120" x2="578" y2="1080" stroke="#052e1b" stroke-width="8" opacity="0.42"/>
        <line x1="791" y1="120" x2="691" y2="1080" stroke="#052e1b" stroke-width="8" opacity="0.42"/>
        <line x1="904" y1="120" x2="804" y2="1080" stroke="#052e1b" stroke-width="8" opacity="0.42"/>
        <line x1="1017" y1="120" x2="917" y2="1080" stroke="#052e1b" stroke-width="8" opacity="0.42"/>
        <line x1="1130" y1="120" x2="1030" y2="1080" stroke="#052e1b" stroke-width="8" opacity="0.42"/>
        <line x1="1243" y1="120" x2="1143" y2="1080" stroke="#052e1b" stroke-width="8" opacity="0.42"/>
        <line x1="1356" y1="120" x2="1256" y2="1080" stroke="#052e1b" stroke-width="8" opacity="0.42"/>
        <line x1="1469" y1="120" x2="1369" y2="1080" stroke="#052e1b" stroke-width="8" opacity="0.42"/>
        <line x1="1582" y1="120" x2="1482" y2="1080" stroke="#052e1b" stroke-width="8" opacity="0.42"/>
        <line x1="1695" y1="120" x2="1595" y2="1080" stroke="#052e1b" stroke-width="8" opacity="0.42"/>
        <line x1="1808" y1="120" x2="1708" y2="1080" stroke="#052e1b" stroke-width="8" opacity="0.42"/>
        <line x1="1" y1="120" x2="-99" y2="1080" stroke="#052e1b" stroke-width="8" opacity="0.42"/>
        <line x1="114" y1="120" x2="14" y2="1080" stroke="#052e1b" stroke-width="8" opacity="0.42"/>
        <line x1="227" y1="120" x2="127" y2="1080" stroke="#052e1b" stroke-width="8" opacity="0.42"/>
        <line x1="340" y1="120" x2="240" y2="1080" stroke="#052e1b" stroke-width="8" opacity="0.42"/>
        <line x1="453" y1="120" x2="353" y2="1080" stroke="#052e1b" stroke-width="8" opacity="0.42"/>
        <line x1="566" y1="120" x2="466" y2="1080" stroke="#052e1b" stroke-width="8" opacity="0.42"/>
        <line x1="679" y1="120" x2="579" y2="1080" stroke="#052e1b" stroke-width="8" opacity="0.42"/>
        <line x1="792" y1="120" x2="692" y2="1080" stroke="#052e1b" stroke-width="8" opacity="0.42"/>
        <line x1="905" y1="120" x2="805" y2="1080" stroke="#052e1b" stroke-width="8" opacity="0.42"/>
        <line x1="1018" y1="120" x2="918" y2="1080" stroke="#052e1b" stroke-width="8" opacity="0.42"/>
        <line x1="1131" y1="120" x2="1031" y2="1080" stroke="#052e1b" stroke-width="8" opacity="0.42"/>
        <line x1="1244" y1="120" x2="1144" y2="1080" stroke="#052e1b" stroke-width="8" opacity="0.42"/>
        <line x1="1357" y1="120" x2="1257" y2="1080" stroke="#052e1b" stroke-width="8" opacity="0.42"/>
        <line x1="1470" y1="120" x2="1370" y2="1080" stroke="#052e1b" stroke-width="8" opacity="0.42"/>
        <line x1="1583" y1="120" x2="1483" y2="1080" stroke="#052e1b" stroke-width="8" opacity="0.42"/>
        <line x1="1696" y1="120" x2="1596" y2="1080" stroke="#052e1b" stroke-width="8" opacity="0.42"/>
        <line x1="1809" y1="120" x2="1709" y2="1080" stroke="#052e1b" stroke-width="8" opacity="0.42"/>
        <line x1="2" y1="120" x2="-98" y2="1080" stroke="#052e1b" stroke-width="8" opacity="0.42"/>
        <line x1="115" y1="120" x2="15" y2="1080" stroke="#052e1b" stroke-width="8" opacity="0.42"/>
        <rect x="735" y="438" width="450" height="460" rx="26" fill="#20261f" opacity="0.56"/>
        <ellipse cx="960" cy="420" rx="300" ry="70" fill="#d9f99d" opacity="0.18"/>
    </g>
    <g opacity="0.8" filter="url(#softBlur)">
        <ellipse cx="989" cy="319" rx="24" ry="5" fill="#fff" opacity="0.025"/>
        <ellipse cx="1565" cy="782" rx="42" ry="12" fill="#fff" opacity="0.031"/>
        <ellipse cx="221" cy="515" rx="60" ry="19" fill="#fff" opacity="0.037"/>
        <ellipse cx="797" cy="423" rx="78" ry="26" fill="#fff" opacity="0.043"/>
        <ellipse cx="1373" cy="959" rx="96" ry="5" fill="#fff" opacity="0.049"/>
        <ellipse cx="29" cy="728" rx="24" ry="12" fill="#fff" opacity="0.055"/>
        <ellipse cx="605" cy="654" rx="42" ry="19" fill="#fff" opacity="0.025"/>
        <ellipse cx="1181" cy="119" rx="60" ry="26" fill="#fff" opacity="0.031"/>
        <ellipse cx="1757" cy="973" rx="78" ry="5" fill="#fff" opacity="0.037"/>
        <ellipse cx="413" cy="361" rx="96" ry="12" fill="#fff" opacity="0.043"/>
        <ellipse cx="989" cy="97" rx="24" ry="19" fill="#fff" opacity="0.049"/>
        <ellipse cx="1565" cy="546" rx="42" ry="26" fill="#fff" opacity="0.055"/>
        <ellipse cx="221" cy="272" rx="60" ry="5" fill="#fff" opacity="0.025"/>
        <ellipse cx="797" cy="717" rx="78" ry="12" fill="#fff" opacity="0.031"/>
        <ellipse cx="1373" cy="981" rx="96" ry="19" fill="#fff" opacity="0.037"/>
        <ellipse cx="29" cy="614" rx="24" ry="26" fill="#fff" opacity="0.043"/>
        <ellipse cx="605" cy="567" rx="42" ry="5" fill="#fff" opacity="0.049"/>
        <ellipse cx="1181" cy="1030" rx="60" ry="12" fill="#fff" opacity="0.055"/>
        <ellipse cx="1757" cy="763" rx="78" ry="19" fill="#fff" opacity="0.025"/>
        <ellipse cx="413" cy="671" rx="96" ry="26" fill="#fff" opacity="0.031"/>
        <ellipse cx="989" cy="127" rx="24" ry="5" fill="#fff" opacity="0.037"/>
        <ellipse cx="1565" cy="976" rx="42" ry="12" fill="#fff" opacity="0.043"/>
        <ellipse cx="221" cy="902" rx="60" ry="19" fill="#fff" opacity="0.049"/>
        <ellipse cx="797" cy="367" rx="78" ry="26" fill="#fff" opacity="0.055"/>
        <ellipse cx="1373" cy="141" rx="96" ry="5" fill="#fff" opacity="0.025"/>
        <ellipse cx="29" cy="609" rx="24" ry="12" fill="#fff" opacity="0.031"/>
        <ellipse cx="605" cy="345" rx="42" ry="19" fill="#fff" opacity="0.037"/>
        <ellipse cx="1181" cy="794" rx="60" ry="26" fill="#fff" opacity="0.043"/>
        <ellipse cx="1757" cy="520" rx="78" ry="5" fill="#fff" opacity="0.049"/>
        <ellipse cx="413" cy="965" rx="96" ry="12" fill="#fff" opacity="0.055"/>
        <ellipse cx="989" cy="149" rx="24" ry="19" fill="#fff" opacity="0.025"/>
        <ellipse cx="1565" cy="862" rx="42" ry="26" fill="#fff" opacity="0.031"/>
        <ellipse cx="221" cy="815" rx="60" ry="5" fill="#fff" opacity="0.037"/>
        <ellipse cx="797" cy="198" rx="78" ry="12" fill="#fff" opacity="0.043"/>
        <ellipse cx="1373" cy="1011" rx="96" ry="19" fill="#fff" opacity="0.049"/>
        <ellipse cx="29" cy="919" rx="24" ry="26" fill="#fff" opacity="0.055"/>
        <ellipse cx="605" cy="375" rx="42" ry="5" fill="#fff" opacity="0.025"/>
        <ellipse cx="1181" cy="144" rx="60" ry="12" fill="#fff" opacity="0.031"/>
        <ellipse cx="1757" cy="70" rx="78" ry="19" fill="#fff" opacity="0.037"/>
        <ellipse cx="413" cy="615" rx="96" ry="26" fill="#fff" opacity="0.043"/>
        <ellipse cx="989" cy="389" rx="24" ry="5" fill="#fff" opacity="0.049"/>
        <ellipse cx="1565" cy="857" rx="42" ry="12" fill="#fff" opacity="0.055"/>
        <ellipse cx="221" cy="593" rx="60" ry="19" fill="#fff" opacity="0.025"/>
        <ellipse cx="797" cy="1042" rx="78" ry="26" fill="#fff" opacity="0.031"/>
        <ellipse cx="1373" cy="768" rx="96" ry="5" fill="#fff" opacity="0.037"/>
        <ellipse cx="29" cy="133" rx="24" ry="12" fill="#fff" opacity="0.043"/>
        <ellipse cx="605" cy="397" rx="42" ry="19" fill="#fff" opacity="0.049"/>
        <ellipse cx="1181" cy="30" rx="60" ry="26" fill="#fff" opacity="0.055"/>
        <ellipse cx="1757" cy="1063" rx="78" ry="5" fill="#fff" opacity="0.025"/>
        <ellipse cx="413" cy="446" rx="96" ry="12" fill="#fff" opacity="0.031"/>
        <ellipse cx="989" cy="179" rx="24" ry="19" fill="#fff" opacity="0.037"/>
        <ellipse cx="1565" cy="87" rx="42" ry="26" fill="#fff" opacity="0.043"/>
        <ellipse cx="221" cy="623" rx="60" ry="5" fill="#fff" opacity="0.049"/>
        <ellipse cx="797" cy="392" rx="78" ry="12" fill="#fff" opacity="0.055"/>
        <ellipse cx="1373" cy="318" rx="96" ry="19" fill="#fff" opacity="0.025"/>
        <ellipse cx="29" cy="863" rx="24" ry="26" fill="#fff" opacity="0.031"/>
    </g>
    <rect width="1920" height="1080" fill="#000" opacity="0.08"/>
    <rect y="740" width="1920" height="340" fill="#000" opacity="0.32"/>
</svg>
