<?xml version="1.0" encoding="UTF-8"?>
<svg xmlns="http://www.w3.org/2000/svg" width="1920" height="1080" viewBox="0 0 1920 1080" role="img" aria-label="救济院失火">
    <title>救济院失火</title>
    <defs>
        <radialGradient id="sceneGlow" cx="28%" cy="18%" r="78%">
            <stop offset="0%" stop-color="#fef3c7" stop-opacity="0.72"/>
            <stop offset="42%" stop-color="#4b0f16" stop-opacity="0.76"/>
            <stop offset="100%" stop-color="#120c08" stop-opacity="1"/>
        </radialGradient>
        <linearGradient id="sceneDepth" x1="0%" y1="0%" x2="100%" y2="100%">
            <stop offset="0%" stop-color="#120c08"/>
            <stop offset="55%" stop-color="#4b0f16"/>
            <stop offset="100%" stop-color="#b45309"/>
        </linearGradient>
        <filter id="softBlur"><feGaussianBlur stdDeviation="18"/></filter>
    </defs>
    <rect width="1920" height="1080" fill="url(#sceneDepth)"/>
    <rect width="1920" height="1080" fill="url(#sceneGlow)" opacity="0.88"/>
    <g opacity="0.9">
        
        <rect x="420" y="405" width="930" height="445" fill="#28140c" opacity="0.78"/>
        <path d="M390 415 L885 215 L1380 415 Z" fill="#3a1b12" opacity="0.88"/>
        <ellipse cx="500" cy="720" rx="56" ry="145" fill="#fde68a" opacity="0.22"/>
        <ellipse cx="555" cy="665" rx="56" ry="145" fill="#f59e0b" opacity="0.22"/>
        <ellipse cx="610" cy="610" rx="56" ry="145" fill="#fde68a" opacity="0.22"/>
        <ellipse cx="665" cy="555" rx="56" ry="145" fill="#f59e0b" opacity="0.22"/>
        <ellipse cx="720" cy="720" rx="56" ry="145" fill="#fde68a" opacity="0.22"/>
        <ellipse cx="775" cy="665" rx="56" ry="145" fill="#f59e0b" opacity="0.22"/>
        <ellipse cx="830" cy="610" rx="56" ry="145" fill="#fde68a" opacity="0.22"/>
        <ellipse cx="885" cy="555" rx="56" ry="145" fill="#f59e0b" opacity="0.22"/>
        <ellipse cx="940" cy="720" rx="56" ry="145" fill="#fde68a" opacity="0.22"/>
        <ellipse cx="995" cy="665" rx="56" ry="145" fill="#f59e0b" opacity="0.22"/>
        <ellipse cx="1050" cy="610" rx="56" ry="145" fill="#fde68a" opacity="0.22"/>
        <ellipse cx="1105" cy="555" rx="56" ry="145" fill="#f59e0b" opacity="0.22"/>
        <ellipse cx="1160" cy="720" rx="56" ry="145" fill="#fde68a" opacity="0.22"/>
        <ellipse cx="1215" cy="665" rx="56" ry="145" fill="#f59e0b" opacity="0.22"/>
        <ellipse cx="1270" cy="610" rx="56" ry="145" fill="#fde68a" opacity="0.22"/>
        <ellipse cx="1325" cy="555" rx="56" ry="145" fill="#f59e0b" opacity="0.22"/>
        <ellipse cx="1010" cy="330" rx="340" ry="95" fill="#b45309" opacity="0.22"/>
    </g>
    <g opacity="0.8" filter="url(#softBlur)">
        <ellipse cx="1402" cy="542" rx="24" ry="5" fill="#fff" opacity="0.025"/>
        <ellipse cx="1841" cy="354" rx="42" ry="12" fill="#fff" opacity="0.031"/>
        <ellipse cx="360" cy="841" rx="60" ry="19" fill="#fff" opacity="0.037"/>
        <ellipse cx="799" cy="46" rx="78" ry="26" fill="#fff" opacity="0.043"/>
        <ellipse cx="1238" cy="230" rx="96" ry="5" fill="#fff" opacity="0.049"/>
        <ellipse cx="1677" cy="364" rx="24" ry="12" fill="#fff" opacity="0.055"/>
        <ellipse cx="196" cy="472" rx="42" ry="19" fill="#fff" opacity="0.025"/>
        <ellipse cx="635" cy="568" rx="60" ry="26" fill="#fff" opacity="0.031"/>
        <ellipse cx="1074" cy="657" rx="78" ry="5" fill="#fff" opacity="0.037"/>
        <ellipse cx="1513" cy="203" rx="96" ry="12" fill="#fff" opacity="0.043"/>
        <ellipse cx="32" cy="18" rx="24" ry="19" fill="#fff" opacity="0.049"/>
        <ellipse cx="471" cy="1047" rx="42" ry="26" fill="#fff" opacity="0.055"/>
        <ellipse cx="910" cy="1063" rx="60" ry="5" fill="#fff" opacity="0.025"/>
        <ellipse cx="1349" cy="32" rx="78" ry="12" fill="#fff" opacity="0.031"/>
        <ellipse cx="1788" cy="98" rx="96" ry="19" fill="#fff" opacity="0.037"/>
        <ellipse cx="307" cy="713" rx="24" ry="26" fill="#fff" opacity="0.043"/>
        <ellipse cx="746" cy="790" rx="42" ry="5" fill="#fff" opacity="0.049"/>
        <ellipse cx="1185" cy="602" rx="60" ry="12" fill="#fff" opacity="0.055"/>
        <ellipse cx="1624" cy="9" rx="78" ry="19" fill="#fff" opacity="0.025"/>
        <ellipse cx="143" cy="294" rx="96" ry="26" fill="#fff" opacity="0.031"/>
        <ellipse cx="582" cy="478" rx="24" ry="5" fill="#fff" opacity="0.037"/>
        <ellipse cx="1021" cy="612" rx="42" ry="12" fill="#fff" opacity="0.043"/>
        <ellipse cx="1460" cy="720" rx="60" ry="19" fill="#fff" opacity="0.049"/>
        <ellipse cx="1899" cy="816" rx="78" ry="26" fill="#fff" opacity="0.055"/>
        <ellipse cx="418" cy="905" rx="96" ry="5" fill="#fff" opacity="0.025"/>
        <ellipse cx="857" cy="451" rx="24" ry="12" fill="#fff" opacity="0.031"/>
        <ellipse cx="1296" cy="266" rx="42" ry="19" fill="#fff" opacity="0.037"/>
        <ellipse cx="1735" cy="215" rx="60" ry="26" fill="#fff" opacity="0.043"/>
        <ellipse cx="254" cy="231" rx="78" ry="5" fill="#fff" opacity="0.049"/>
        <ellipse cx="693" cy="280" rx="96" ry="12" fill="#fff" opacity="0.055"/>
        <ellipse cx="1132" cy="346" rx="24" ry="19" fill="#fff" opacity="0.025"/>
        <ellipse cx="1571" cy="961" rx="42" ry="26" fill="#fff" opacity="0.031"/>
        <ellipse cx="90" cy="1038" rx="60" ry="5" fill="#fff" opacity="0.037"/>
        <ellipse cx="529" cy="850" rx="78" ry="12" fill="#fff" opacity="0.043"/>
        <ellipse cx="968" cy="257" rx="96" ry="19" fill="#fff" opacity="0.049"/>
        <ellipse cx="1407" cy="542" rx="24" ry="26" fill="#fff" opacity="0.055"/>
        <ellipse cx="1846" cy="726" rx="42" ry="5" fill="#fff" opacity="0.025"/>
        <ellipse cx="365" cy="860" rx="60" ry="12" fill="#fff" opacity="0.031"/>
        <ellipse cx="804" cy="968" rx="78" ry="19" fill="#fff" opacity="0.037"/>
        <ellipse cx="1243" cy="1064" rx="96" ry="26" fill="#fff" opacity="0.043"/>
        <ellipse cx="1682" cy="73" rx="24" ry="5" fill="#fff" opacity="0.049"/>
        <ellipse cx="201" cy="699" rx="42" ry="12" fill="#fff" opacity="0.055"/>
        <ellipse cx="640" cy="514" rx="60" ry="19" fill="#fff" opacity="0.025"/>
        <ellipse cx="1079" cy="463" rx="78" ry="26" fill="#fff" opacity="0.031"/>
        <ellipse cx="1518" cy="479" rx="96" ry="5" fill="#fff" opacity="0.037"/>
        <ellipse cx="37" cy="528" rx="24" ry="12" fill="#fff" opacity="0.043"/>
        <ellipse cx="476" cy="594" rx="42" ry="19" fill="#fff" opacity="0.049"/>
        <ellipse cx="915" cy="129" rx="60" ry="26" fill="#fff" opacity="0.055"/>
        <ellipse cx="1354" cy="206" rx="78" ry="5" fill="#fff" opacity="0.025"/>
        <ellipse cx="1793" cy="18" rx="96" ry="12" fill="#fff" opacity="0.031"/>
        <ellipse cx="312" cy="505" rx="24" ry="19" fill="#fff" opacity="0.037"/>
        <ellipse cx="751" cy="790" rx="42" ry="26" fill="#fff" opacity="0.043"/>
        <ellipse cx="1190" cy="974" rx="60" ry="5" fill="#fff" opacity="0.049"/>
        <ellipse cx="1629" cy="28" rx="78" ry="12" fill="#fff" opacity="0.055"/>
        <ellipse cx="148" cy="136" rx="96" ry="19" fill="#fff" opacity="0.025"/>
        <ellipse cx="587" cy="232" rx="24" ry="26" fill="#fff" opacity="0.031"/>
    </g>
    <rect width="1920" height="1080" fill="#000" opacity="0.08"/>
    <rect y="740" width="1920" height="340" fill="#000" opacity="0.32"/>
</svg>
